# xmcd
#
# Track frame offsets: 
#        150
#        9029
#        23704
#        42541
#        48861
#        62823
#        81869
#        116519
#        136442
#        148624
#        169758
#        185101
#        206463
#        214582
#        231139
#
# Disc length: 3557 seconds
#
# Revision: 1
# Processed by: cddbd v1.5.2PL0 Copyright (c) Steve Scherf et al.
# Submitted via: ExactAudioCopyFreeDBPlugin 1.0
#
DISCID=cc0de30f
DTITLE=Ville Kalliosta - 100 x 200 mg
DYEAR=2006
DGENRE=Rap
TTITLE0=Intro
TTITLE1=Kuka Rokkaa Eniten
TTITLE2=Messis Täs (feat. Sampsa Nuotio)
TTITLE3=Matka Levylle On Lyhyt
TTITLE4=Tekeil On Mitä?!
TTITLE5=Komennat Ja Opetat (feat. Katri Puro and Mariska)
TTITLE6=Massit Takasin (feat. Jontti, Petos, Lempi Joe, Lerha, Aave and 
TTITLE6=Syöpä)
TTITLE7=Stikkaa Lamppuun Eldis (feat. Steen1 and Sampsa Nuotio)
TTITLE8=A - Puoli
TTITLE9=Nyt Tarkasti (Alati Varuillaan) (feat. Sampsa Nuotio)
TTITLE10=Puolet Enemmän
TTITLE11=Aamuna (feat. Rami Raski)
TTITLE12=Eemo1 Saa Sut Taputtaan Tähän
TTITLE13=100 x 200 mg (2004)
TTITLE14=Ett Uppoo (feat. Aksim and Teesi)
EXTD=
EXTT0=
EXTT1=
EXTT2=feat. Sampsa Nuotio
EXTT3=
EXTT4=
EXTT5=feat. Katri Puro and Mariska
EXTT6=feat. Jontti, Petos, Lempi Joe, Lerha, Aave and Syöpä
EXTT7=feat. Steen1 and Sampsa Nuotio
EXTT8=
EXTT9=feat. Sampsa Nuotio
EXTT10=
EXTT11=feat. Rami Raski
EXTT12=
EXTT13=
EXTT14=feat. Aksim and Teesi
PLAYORDER=
